<svg xmlns="http://www.w3.org/2000/svg" version="1.1" xmlns:xlink="http://www.w3.org/1999/xlink" xmlns:svgjs="http://svgjs.dev/svgjs" viewBox="0 0 800 800"><defs><linearGradient x1="50%" y1="0%" x2="50%" y2="100%" id="ffflurry-grad" gradientTransform="rotate(270)"><stop stop-color="hsl(0, 0%, 100%)" stop-opacity="1" offset="0%"></stop><stop stop-color="hsl(184, 74%, 44%)" stop-opacity="1" offset="45%"></stop><stop stop-color="hsl(332, 87%, 70%)" stop-opacity="1" offset="100%"></stop></linearGradient></defs><rect width="100%" height="100%" fill="hsl(0, 0%, 100%)"></rect><g fill="url(#ffflurry-grad)"><rect width="468" height="2" x="-33" y="509" rx="1" transform="rotate(57, 201, 510)"></rect><rect width="66" height="2" x="44" y="522" rx="1" transform="rotate(57, 77, 523)"></rect><rect width="477" height="2" x="-165.5" y="690" rx="1" transform="rotate(57, 73, 691)"></rect><rect width="170" height="2" x="124" y="749" rx="1" transform="rotate(57, 209, 750)"></rect><rect width="550" height="2" x="124" y="172" rx="1" transform="rotate(57, 399, 173)"></rect><rect width="548" height="2" x="490" y="619" rx="1" transform="rotate(57, 764, 620)"></rect><rect width="529" height="2" x="-14.5" y="585" rx="1" transform="rotate(57, 250, 586)"></rect><rect width="310" height="2" x="336" y="430" rx="1" transform="rotate(57, 491, 431)"></rect><rect width="384" height="2" x="364" y="754" rx="1" transform="rotate(57, 556, 755)"></rect><rect width="225" height="2" x="402.5" y="87" rx="1" transform="rotate(57, 515, 88)"></rect><rect width="651" height="2" x="139.5" y="507" rx="1" transform="rotate(57, 465, 508)"></rect><rect width="73" height="2" x="192.5" y="668" rx="1" transform="rotate(57, 229, 669)"></rect><rect width="257" height="2" x="496.5" y="550" rx="1" transform="rotate(57, 625, 551)"></rect><rect width="304" height="2" x="-75" y="565" rx="1" transform="rotate(57, 77, 566)"></rect><rect width="554" height="2" x="492" y="203" rx="1" transform="rotate(57, 769, 204)"></rect><rect width="157" height="2" x="243.5" y="540" rx="1" transform="rotate(57, 322, 541)"></rect><rect width="380" height="2" x="197" y="753" rx="1" transform="rotate(57, 387, 754)"></rect><rect width="316" height="2" x="371" y="551" rx="1" transform="rotate(57, 529, 552)"></rect><rect width="469" height="2" x="-73.5" y="602" rx="1" transform="rotate(57, 161, 603)"></rect><rect width="97" height="2" x="535.5" y="115" rx="1" transform="rotate(57, 584, 116)"></rect><rect width="895" height="2" x="-168.5" y="444" rx="1" transform="rotate(57, 279, 445)"></rect><rect width="143" height="2" x="691.5" y="714" rx="1" transform="rotate(57, 763, 715)"></rect><rect width="528" height="2" x="36" y="242" rx="1" transform="rotate(57, 300, 243)"></rect><rect width="525" height="2" x="210.5" y="768" rx="1" transform="rotate(57, 473, 769)"></rect><rect width="276" height="2" x="-113" y="544" rx="1" transform="rotate(57, 25, 545)"></rect><rect width="460" height="2" x="487" y="39" rx="1" transform="rotate(57, 717, 40)"></rect><rect width="39" height="2" x="715.5" y="777" rx="1" transform="rotate(57, 735, 778)"></rect><rect width="366" height="2" x="528" y="133" rx="1" transform="rotate(57, 711, 134)"></rect><rect width="578" height="2" x="120" y="372" rx="1" transform="rotate(57, 409, 373)"></rect><rect width="371" height="2" x="545.5" y="540" rx="1" transform="rotate(57, 731, 541)"></rect><rect width="74" height="2" x="30" y="106" rx="1" transform="rotate(57, 67, 107)"></rect><rect width="91" height="2" x="282.5" y="649" rx="1" transform="rotate(57, 328, 650)"></rect><rect width="24" height="2" x="8" y="141" rx="1" transform="rotate(57, 20, 142)"></rect><rect width="498" height="2" x="430" y="739" rx="1" transform="rotate(57, 679, 740)"></rect><rect width="93" height="2" x="391.5" y="314" rx="1" transform="rotate(57, 438, 315)"></rect><rect width="480" height="2" x="382" y="755" rx="1" transform="rotate(57, 622, 756)"></rect><rect width="242" height="2" x="443" y="29" rx="1" transform="rotate(57, 564, 30)"></rect><rect width="340" height="2" x="-85" y="741" rx="1" transform="rotate(57, 85, 742)"></rect><rect width="254" height="2" x="-85" y="183" rx="1" transform="rotate(57, 42, 184)"></rect><rect width="46" height="2" x="473" y="699" rx="1" transform="rotate(57, 496, 700)"></rect><rect width="563" height="2" x="230.5" y="351" rx="1" transform="rotate(57, 512, 352)"></rect><rect width="408" height="2" x="90" y="68" rx="1" transform="rotate(57, 294, 69)"></rect><rect width="42" height="2" x="669" y="675" rx="1" transform="rotate(57, 690, 676)"></rect><rect width="235" height="2" x="621.5" y="455" rx="1" transform="rotate(57, 739, 456)"></rect><rect width="546" height="2" x="307" y="398" rx="1" transform="rotate(57, 580, 399)"></rect><rect width="743" height="2" x="-93.5" y="162" rx="1" transform="rotate(57, 278, 163)"></rect><rect width="307" height="2" x="460.5" y="188" rx="1" transform="rotate(57, 614, 189)"></rect><rect width="239" height="2" x="413.5" y="212" rx="1" transform="rotate(57, 533, 213)"></rect><rect width="85" height="2" x="540.5" y="667" rx="1" transform="rotate(57, 583, 668)"></rect><rect width="390" height="2" x="280" y="238" rx="1" transform="rotate(57, 475, 239)"></rect><rect width="417" height="2" x="-184.5" y="71" rx="1" transform="rotate(57, 24, 72)"></rect><rect width="178" height="2" x="128" y="335" rx="1" transform="rotate(57, 217, 336)"></rect><rect width="460" height="2" x="68" y="751" rx="1" transform="rotate(57, 298, 752)"></rect><rect width="278" height="2" x="229" y="422" rx="1" transform="rotate(57, 368, 423)"></rect><rect width="279" height="2" x="-119.5" y="329" rx="1" transform="rotate(57, 20, 330)"></rect><rect width="410" height="2" x="462" y="96" rx="1" transform="rotate(57, 667, 97)"></rect><rect width="175" height="2" x="659.5" y="373" rx="1" transform="rotate(57, 747, 374)"></rect><rect width="217" height="2" x="299.5" y="574" rx="1" transform="rotate(57, 408, 575)"></rect><rect width="252" height="2" x="-61" y="374" rx="1" transform="rotate(57, 65, 375)"></rect><rect width="273" height="2" x="642.5" y="317" rx="1" transform="rotate(57, 779, 318)"></rect><rect width="84" height="2" x="-21" y="751" rx="1" transform="rotate(57, 21, 752)"></rect><rect width="601" height="2" x="91.5" y="260" rx="1" transform="rotate(57, 392, 261)"></rect><rect width="467" height="2" x="420.5" y="367" rx="1" transform="rotate(57, 654, 368)"></rect><rect width="573" height="2" x="482.5" y="125" rx="1" transform="rotate(57, 769, 126)"></rect><rect width="326" height="2" x="505" y="269" rx="1" transform="rotate(57, 668, 270)"></rect><rect width="341" height="2" x="-44.5" y="494" rx="1" transform="rotate(57, 126, 495)"></rect><rect width="98" height="2" x="555" y="477" rx="1" transform="rotate(57, 604, 478)"></rect><rect width="290" height="2" x="405" y="622" rx="1" transform="rotate(57, 550, 623)"></rect><rect width="601" height="2" x="-199.5" y="217" rx="1" transform="rotate(57, 101, 218)"></rect><rect width="227" height="2" x="-21.5" y="427" rx="1" transform="rotate(57, 92, 428)"></rect><rect width="165" height="2" x="389.5" y="619" rx="1" transform="rotate(57, 472, 620)"></rect><rect width="512" height="2" x="113" y="45" rx="1" transform="rotate(57, 369, 46)"></rect><rect width="702" height="2" x="-172" y="246" rx="1" transform="rotate(57, 179, 247)"></rect><rect width="201" height="2" x="427.5" y="293" rx="1" transform="rotate(57, 528, 294)"></rect><rect width="454" height="2" x="-132" y="305" rx="1" transform="rotate(57, 95, 306)"></rect><rect width="722" height="2" x="-190" y="407" rx="1" transform="rotate(57, 171, 408)"></rect><rect width="431" height="2" x="-187.5" y="596" rx="1" transform="rotate(57, 28, 597)"></rect><rect width="602" height="2" x="108" y="671" rx="1" transform="rotate(57, 409, 672)"></rect><rect width="791" height="2" x="-207.5" y="134" rx="1" transform="rotate(57, 188, 135)"></rect><rect width="566" height="2" x="389" y="606" rx="1" transform="rotate(57, 672, 607)"></rect><rect width="260" height="2" x="520" y="26" rx="1" transform="rotate(57, 650, 27)"></rect><rect width="489" height="2" x="187.5" y="101" rx="1" transform="rotate(57, 432, 102)"></rect><rect width="317" height="2" x="538.5" y="199" rx="1" transform="rotate(57, 697, 200)"></rect><rect width="146" height="2" x="516" y="288" rx="1" transform="rotate(57, 589, 289)"></rect><rect width="151" height="2" x="41.5" y="148" rx="1" transform="rotate(57, 117, 149)"></rect><rect width="104" height="2" x="107" y="39" rx="1" transform="rotate(57, 159, 40)"></rect><rect width="463" height="2" x="379.5" y="68" rx="1" transform="rotate(57, 611, 69)"></rect><rect width="26" height="2" x="27" y="642" rx="1" transform="rotate(57, 40, 643)"></rect><rect width="62" height="2" x="490" y="153" rx="1" transform="rotate(57, 521, 154)"></rect><rect width="417" height="2" x="406.5" y="232" rx="1" transform="rotate(57, 615, 233)"></rect><rect width="311" height="2" x="159.5" y="336" rx="1" transform="rotate(57, 315, 337)"></rect><rect width="119" height="2" x="333.5" y="482" rx="1" transform="rotate(57, 393, 483)"></rect><rect width="149" height="2" x="57.5" y="676" rx="1" transform="rotate(57, 132, 677)"></rect><rect width="317" height="2" x="-123.5" y="248" rx="1" transform="rotate(57, 35, 249)"></rect><rect width="226" height="2" x="-91" y="691" rx="1" transform="rotate(57, 22, 692)"></rect><rect width="88" height="2" x="14" y="782" rx="1" transform="rotate(57, 58, 783)"></rect><rect width="286" height="2" x="-122" y="499" rx="1" transform="rotate(57, 21, 500)"></rect><rect width="47" height="2" x="77.5" y="598" rx="1" transform="rotate(57, 101, 599)"></rect><rect width="294" height="2" x="485" y="659" rx="1" transform="rotate(57, 632, 660)"></rect><rect width="42" height="2" x="21" y="21" rx="1" transform="rotate(57, 42, 22)"></rect><rect width="389" height="2" x="-160.5" y="450" rx="1" transform="rotate(57, 34, 451)"></rect><rect width="130" height="2" x="691" y="258" rx="1" transform="rotate(57, 756, 259)"></rect><rect width="240" height="2" x="105" y="42" rx="1" transform="rotate(57, 225, 43)"></rect><rect width="415" height="2" x="-102.5" y="50" rx="1" transform="rotate(57, 105, 51)"></rect><rect width="511" height="2" x="460.5" y="305" rx="1" transform="rotate(57, 716, 306)"></rect><rect width="497" height="2" x="-108.5" y="763" rx="1" transform="rotate(57, 140, 764)"></rect><rect width="297" height="2" x="625.5" y="43" rx="1" transform="rotate(57, 774, 44)"></rect><rect width="130" height="2" x="567" y="149" rx="1" transform="rotate(57, 632, 150)"></rect><rect width="141" height="2" x="400.5" y="28" rx="1" transform="rotate(57, 471, 29)"></rect></g></svg>