<svg xmlns="http://www.w3.org/2000/svg" version="1.1" xmlns:xlink="http://www.w3.org/1999/xlink" xmlns:svgjs="http://svgjs.dev/svgjs" viewBox="0 0 800 800"><defs><linearGradient x1="50%" y1="0%" x2="50%" y2="100%" id="ffflurry-grad" gradientTransform="rotate(270)"><stop stop-color="hsl(238, 82%, 13%)" stop-opacity="1" offset="0%"></stop><stop stop-color="hsl(184, 74%, 44%)" stop-opacity="1" offset="45%"></stop><stop stop-color="hsl(332, 87%, 70%)" stop-opacity="1" offset="100%"></stop></linearGradient></defs><rect width="100%" height="100%" fill="hsl(238, 82%, 13%)"></rect><g fill="hsl(32, 100%, 51%)"><rect width="446" height="2" x="116" y="649" rx="1" transform="rotate(57, 339, 650)" opacity="0.63"></rect><rect width="446" height="2" x="384" y="205" rx="1" transform="rotate(57, 607, 206)" opacity="0.77"></rect><rect width="506" height="2" x="284" y="324" rx="1" transform="rotate(57, 537, 325)" opacity="0.50"></rect><rect width="354" height="2" x="52" y="221" rx="1" transform="rotate(57, 229, 222)" opacity="0.55"></rect><rect width="803" height="2" x="-361.5" y="394" rx="1" transform="rotate(57, 40, 395)" opacity="0.86"></rect><rect width="483" height="2" x="340.5" y="771" rx="1" transform="rotate(57, 582, 772)" opacity="0.92"></rect><rect width="566" height="2" x="363" y="128" rx="1" transform="rotate(57, 646, 129)" opacity="0.46"></rect><rect width="210" height="2" x="506" y="347" rx="1" transform="rotate(57, 611, 348)" opacity="0.50"></rect><rect width="149" height="2" x="210.5" y="370" rx="1" transform="rotate(57, 285, 371)" opacity="0.41"></rect><rect width="495" height="2" x="118.5" y="29" rx="1" transform="rotate(57, 366, 30)" opacity="0.25"></rect><rect width="712" height="2" x="33" y="574" rx="1" transform="rotate(57, 389, 575)" opacity="0.42"></rect><rect width="121" height="2" x="77.5" y="167" rx="1" transform="rotate(57, 138, 168)" opacity="0.67"></rect><rect width="191" height="2" x="-53.5" y="496" rx="1" transform="rotate(57, 42, 497)" opacity="0.41"></rect><rect width="402" height="2" x="576" y="668" rx="1" transform="rotate(57, 777, 669)" opacity="0.37"></rect><rect width="344" height="2" x="371" y="240" rx="1" transform="rotate(57, 543, 241)" opacity="0.60"></rect><rect width="534" height="2" x="11" y="248" rx="1" transform="rotate(57, 278, 249)" opacity="0.53"></rect><rect width="85" height="2" x="164.5" y="339" rx="1" transform="rotate(57, 207, 340)" opacity="0.46"></rect><rect width="428" height="2" x="-171" y="179" rx="1" transform="rotate(57, 43, 180)" opacity="0.61"></rect><rect width="214" height="2" x="173" y="178" rx="1" transform="rotate(57, 280, 179)" opacity="0.25"></rect><rect width="83" height="2" x="470.5" y="153" rx="1" transform="rotate(57, 512, 154)" opacity="0.81"></rect><rect width="298" height="2" x="448" y="36" rx="1" transform="rotate(57, 597, 37)" opacity="0.71"></rect><rect width="239" height="2" x="330.5" y="768" rx="1" transform="rotate(57, 450, 769)" opacity="0.90"></rect><rect width="433" height="2" x="-105.5" y="236" rx="1" transform="rotate(57, 111, 237)" opacity="0.63"></rect><rect width="320" height="2" x="593" y="34" rx="1" transform="rotate(57, 753, 35)" opacity="0.58"></rect><rect width="405" height="2" x="-83.5" y="399" rx="1" transform="rotate(57, 119, 400)" opacity="0.07"></rect><rect width="605" height="2" x="230.5" y="86" rx="1" transform="rotate(57, 533, 87)" opacity="0.54"></rect><rect width="50" height="2" x="116" y="319" rx="1" transform="rotate(57, 141, 320)" opacity="0.63"></rect><rect width="421" height="2" x="383.5" y="531" rx="1" transform="rotate(57, 594, 532)" opacity="0.32"></rect><rect width="224" height="2" x="237" y="266" rx="1" transform="rotate(57, 349, 267)" opacity="0.32"></rect><rect width="443" height="2" x="422.5" y="761" rx="1" transform="rotate(57, 644, 762)" opacity="0.59"></rect><rect width="659" height="2" x="434.5" y="115" rx="1" transform="rotate(57, 764, 116)" opacity="0.99"></rect><rect width="298" height="2" x="527" y="52" rx="1" transform="rotate(57, 676, 53)" opacity="0.52"></rect><rect width="516" height="2" x="105" y="762" rx="1" transform="rotate(57, 363, 763)" opacity="0.28"></rect><rect width="312" height="2" x="-105" y="37" rx="1" transform="rotate(57, 51, 38)" opacity="0.43"></rect><rect width="422" height="2" x="53" y="526" rx="1" transform="rotate(57, 264, 527)" opacity="0.69"></rect><rect width="214" height="2" x="-48" y="769" rx="1" transform="rotate(57, 59, 770)" opacity="0.48"></rect><rect width="590" height="2" x="141" y="646" rx="1" transform="rotate(57, 436, 647)" opacity="0.69"></rect><rect width="439" height="2" x="246.5" y="438" rx="1" transform="rotate(57, 466, 439)" opacity="0.94"></rect><rect width="189" height="2" x="33.5" y="511" rx="1" transform="rotate(57, 128, 512)" opacity="0.61"></rect><rect width="561" height="2" x="-102.5" y="266" rx="1" transform="rotate(57, 178, 267)" opacity="0.24"></rect><rect width="58" height="2" x="436" y="514" rx="1" transform="rotate(57, 465, 515)" opacity="0.94"></rect><rect width="220" height="2" x="563" y="218" rx="1" transform="rotate(57, 673, 219)" opacity="0.98"></rect><rect width="316" height="2" x="364" y="762" rx="1" transform="rotate(57, 522, 763)" opacity="0.63"></rect><rect width="409" height="2" x="199.5" y="716" rx="1" transform="rotate(57, 404, 717)" opacity="0.99"></rect><rect width="204" height="2" x="482" y="129" rx="1" transform="rotate(57, 584, 130)" opacity="0.77"></rect><rect width="224" height="2" x="150" y="333" rx="1" transform="rotate(57, 262, 334)" opacity="0.81"></rect><rect width="531" height="2" x="-129.5" y="33" rx="1" transform="rotate(57, 136, 34)" opacity="0.22"></rect><rect width="886" height="2" x="305" y="508" rx="1" transform="rotate(57, 748, 509)" opacity="0.25"></rect><rect width="244" height="2" x="478" y="707" rx="1" transform="rotate(57, 600, 708)" opacity="0.14"></rect><rect width="338" height="2" x="-149" y="95" rx="1" transform="rotate(57, 20, 96)" opacity="0.38"></rect><rect width="395" height="2" x="112.5" y="309" rx="1" transform="rotate(57, 310, 310)" opacity="0.22"></rect><rect width="181" height="2" x="413.5" y="580" rx="1" transform="rotate(57, 504, 581)" opacity="0.12"></rect><rect width="260" height="2" x="581" y="424" rx="1" transform="rotate(57, 711, 425)" opacity="0.51"></rect><rect width="255" height="2" x="62.5" y="191" rx="1" transform="rotate(57, 190, 192)" opacity="0.89"></rect><rect width="422" height="2" x="-151" y="601" rx="1" transform="rotate(57, 60, 602)" opacity="0.31"></rect><rect width="670" height="2" x="212" y="428" rx="1" transform="rotate(57, 547, 429)" opacity="0.81"></rect><rect width="51" height="2" x="696.5" y="777" rx="1" transform="rotate(57, 722, 778)" opacity="0.80"></rect><rect width="199" height="2" x="399.5" y="15" rx="1" transform="rotate(57, 499, 16)" opacity="0.28"></rect><rect width="142" height="2" x="692" y="209" rx="1" transform="rotate(57, 763, 210)" opacity="0.37"></rect><rect width="343" height="2" x="-49.5" y="710" rx="1" transform="rotate(57, 122, 711)" opacity="0.72"></rect><rect width="590" height="2" x="-22" y="700" rx="1" transform="rotate(57, 273, 701)" opacity="0.17"></rect><rect width="100" height="2" x="648" y="268" rx="1" transform="rotate(57, 698, 269)" opacity="0.19"></rect><rect width="167" height="2" x="78.5" y="779" rx="1" transform="rotate(57, 162, 780)" opacity="0.59"></rect><rect width="378" height="2" x="203" y="164" rx="1" transform="rotate(57, 392, 165)" opacity="0.65"></rect><rect width="615" height="2" x="385.5" y="347" rx="1" transform="rotate(57, 693, 348)" opacity="0.18"></rect><rect width="601" height="2" x="99.5" y="374" rx="1" transform="rotate(57, 400, 375)" opacity="0.54"></rect><rect width="48" height="2" x="450" y="363" rx="1" transform="rotate(57, 474, 364)" opacity="0.34"></rect><rect width="374" height="2" x="140" y="526" rx="1" transform="rotate(57, 327, 527)" opacity="0.13"></rect><rect width="616" height="2" x="-52" y="613" rx="1" transform="rotate(57, 256, 614)" opacity="0.34"></rect><rect width="300" height="2" x="276" y="78" rx="1" transform="rotate(57, 426, 79)" opacity="0.15"></rect><rect width="567" height="2" x="431.5" y="593" rx="1" transform="rotate(57, 715, 594)" opacity="0.07"></rect><rect width="542" height="2" x="-203" y="311" rx="1" transform="rotate(57, 68, 312)" opacity="0.54"></rect><rect width="672" height="2" x="-146" y="412" rx="1" transform="rotate(57, 190, 413)" opacity="0.32"></rect><rect width="363" height="2" x="574.5" y="727" rx="1" transform="rotate(57, 756, 728)" opacity="0.12"></rect><rect width="147" height="2" x="165.5" y="288" rx="1" transform="rotate(57, 239, 289)" opacity="0.92"></rect><rect width="340" height="2" x="273" y="295" rx="1" transform="rotate(57, 443, 296)" opacity="0.20"></rect><rect width="115" height="2" x="131.5" y="720" rx="1" transform="rotate(57, 189, 721)" opacity="0.23"></rect><rect width="95" height="2" x="204.5" y="453" rx="1" transform="rotate(57, 252, 454)" opacity="0.38"></rect><rect width="487" height="2" x="-43.5" y="514" rx="1" transform="rotate(57, 200, 515)" opacity="0.17"></rect><rect width="207" height="2" x="-63.5" y="230" rx="1" transform="rotate(57, 40, 231)" opacity="0.53"></rect><rect width="214" height="2" x="212" y="84" rx="1" transform="rotate(57, 319, 85)" opacity="0.07"></rect><rect width="580" height="2" x="113" y="232" rx="1" transform="rotate(57, 403, 233)" opacity="0.66"></rect><rect width="399" height="2" x="141.5" y="163" rx="1" transform="rotate(57, 341, 164)" opacity="0.50"></rect><rect width="471" height="2" x="535.5" y="368" rx="1" transform="rotate(57, 771, 369)" opacity="0.79"></rect><rect width="729" height="2" x="191.5" y="639" rx="1" transform="rotate(57, 556, 640)" opacity="0.98"></rect><rect width="383" height="2" x="111.5" y="765" rx="1" transform="rotate(57, 303, 766)" opacity="0.36"></rect><rect width="199" height="2" x="161.5" y="403" rx="1" transform="rotate(57, 261, 404)" opacity="0.27"></rect><rect width="560" height="2" x="195" y="219" rx="1" transform="rotate(57, 475, 220)" opacity="0.29"></rect><rect width="59" height="2" x="208.5" y="30" rx="1" transform="rotate(57, 238, 31)" opacity="0.33"></rect><rect width="530" height="2" x="-75" y="101" rx="1" transform="rotate(57, 190, 102)" opacity="0.86"></rect><rect width="775" height="2" x="-347.5" y="693" rx="1" transform="rotate(57, 40, 694)" opacity="0.08"></rect><rect width="333" height="2" x="83.5" y="110" rx="1" transform="rotate(57, 250, 111)" opacity="0.37"></rect><rect width="105" height="2" x="184.5" y="762" rx="1" transform="rotate(57, 237, 763)" opacity="0.64"></rect><rect width="235" height="2" x="-52.5" y="129" rx="1" transform="rotate(57, 65, 130)" opacity="0.83"></rect><rect width="641" height="2" x="-154.5" y="628" rx="1" transform="rotate(57, 166, 629)" opacity="0.08"></rect><rect width="482" height="2" x="104" y="359" rx="1" transform="rotate(57, 345, 360)" opacity="0.37"></rect><rect width="498" height="2" x="390" y="634" rx="1" transform="rotate(57, 639, 635)" opacity="0.67"></rect><rect width="181" height="2" x="231.5" y="435" rx="1" transform="rotate(57, 322, 436)" opacity="0.47"></rect><rect width="238" height="2" x="586" y="154" rx="1" transform="rotate(57, 705, 155)" opacity="0.17"></rect><rect width="621" height="2" x="75.5" y="467" rx="1" transform="rotate(57, 386, 468)" opacity="0.42"></rect><rect width="265" height="2" x="559.5" y="705" rx="1" transform="rotate(57, 692, 706)" opacity="0.83"></rect><rect width="193" height="2" x="662.5" y="285" rx="1" transform="rotate(57, 759, 286)" opacity="0.40"></rect><rect width="103" height="2" x="-33.5" y="285" rx="1" transform="rotate(57, 18, 286)" opacity="0.28"></rect><rect width="71" height="2" x="407.5" y="146" rx="1" transform="rotate(57, 443, 147)" opacity="0.38"></rect><rect width="707" height="2" x="277.5" y="447" rx="1" transform="rotate(57, 631, 448)" opacity="0.62"></rect><rect width="629" height="2" x="-189.5" y="104" rx="1" transform="rotate(57, 125, 105)" opacity="0.95"></rect><rect width="674" height="2" x="163" y="697" rx="1" transform="rotate(57, 500, 698)" opacity="0.65"></rect><rect width="188" height="2" x="534" y="280" rx="1" transform="rotate(57, 628, 281)" opacity="0.72"></rect><rect width="324" height="2" x="323" y="55" rx="1" transform="rotate(57, 485, 56)" opacity="0.34"></rect></g></svg>